<svg width="53" height="52" viewBox="0 0 53 52" fill="none" xmlns="http://www.w3.org/2000/svg">
<g filter="url(#filter0_d_31_88)">
<path d="M4.7118 10.6841C2.73809 4.52608 8.50711 -1.30761 14.6867 0.597335L44 9.6335V9.6335C51.4636 12.5924 49.444 23.6669 41.4164 23.8008L37.341 23.8688C32.9754 23.9416 29.4744 27.5014 29.4744 31.8677L29.4744 35.8859C29.4744 44.5171 17.6931 47.0303 14.1708 39.1505L12.9861 36.5L4.7118 10.6841Z" fill="black" style="fill:black;fill-opacity:1;"/>
<path d="M14.0976 2.50859L43.3307 11.5201C48.6812 13.713 47.1996 21.7041 41.383 21.8011L37.3077 21.8691C31.8506 21.9601 27.4744 26.4099 27.4744 31.8677L27.4744 35.8859C27.4744 42.3593 18.6384 44.2442 15.9967 38.3343L14.857 35.7845L6.61637 10.0736C5.13608 5.45515 9.46285 1.07988 14.0976 2.50859Z" stroke="white" style="stroke:white;stroke-opacity:1;" stroke-width="4"/>
</g>
<defs>
<filter id="filter0_d_31_88" x="0.317711" y="0.230438" width="52.3265" height="51.6662" filterUnits="userSpaceOnUse" color-interpolation-filters="sRGB">
<feFlood flood-opacity="0" result="BackgroundImageFix"/>
<feColorMatrix in="SourceAlpha" type="matrix" values="0 0 0 0 0 0 0 0 0 0 0 0 0 0 0 0 0 0 127 0" result="hardAlpha"/>
<feOffset dy="4"/>
<feGaussianBlur stdDeviation="2"/>
<feComposite in2="hardAlpha" operator="out"/>
<feColorMatrix type="matrix" values="0 0 0 0 0 0 0 0 0 0 0 0 0 0 0 0 0 0 0.25 0"/>
<feBlend mode="normal" in2="BackgroundImageFix" result="effect1_dropShadow_31_88"/>
<feBlend mode="normal" in="SourceGraphic" in2="effect1_dropShadow_31_88" result="shape"/>
</filter>
</defs>
</svg>
